<svg width="96" height="96" xmlns="http://www.w3.org/2000/svg" xmlns:xlink="http://www.w3.org/1999/xlink" xml:space="preserve" overflow="hidden"><g transform="translate(-1115 -393)"><path d="M1182.09 441.91 1182.09 440.469C1182.08 439.122 1180.99 438.03 1179.65 438.028L1175.32 438.028C1173.98 438.03 1172.89 439.122 1172.88 440.469L1172.88 441.91C1172.89 443.257 1173.98 444.349 1175.32 444.351L1179.65 444.351C1180.99 444.349 1182.08 443.257 1182.09 441.91ZM1174.89 441.91 1174.89 440.469C1174.89 440.227 1175.08 440.031 1175.33 440.028L1179.65 440.028C1179.89 440.031 1180.09 440.227 1180.09 440.469L1180.09 441.91C1180.09 442.152 1179.89 442.348 1179.65 442.351L1175.32 442.351C1175.08 442.348 1174.89 442.152 1174.88 441.91Z"/><path d="M1150.86 438.028 1146.54 438.028C1145.19 438.031 1144.1 439.123 1144.1 440.469L1144.1 441.91C1144.1 443.257 1145.19 444.349 1146.54 444.351L1150.86 444.351C1152.21 444.348 1153.3 443.257 1153.3 441.91L1153.3 440.469C1153.3 439.121 1152.21 438.029 1150.86 438.028ZM1151.3 441.91C1151.3 442.152 1151.1 442.348 1150.86 442.351L1146.54 442.351C1146.3 442.348 1146.1 442.152 1146.1 441.91L1146.1 440.469C1146.1 440.227 1146.3 440.031 1146.54 440.028L1150.86 440.028C1151.1 440.031 1151.3 440.227 1151.3 440.469Z"/><path d="M1183.26 433.516 1182.41 433.516 1178.58 424.5C1177.94 422.877 1176.36 421.817 1174.62 421.835L1151.57 421.835C1150.62 421.835 1149.71 422.146 1148.96 422.721L1150.4 424.158C1150.75 423.946 1151.16 423.832 1151.57 423.83L1174.62 423.83C1175.54 423.814 1176.37 424.369 1176.72 425.224L1176.73 425.25 1176.74 425.277 1180.24 433.516 1159.76 433.516 1161.76 435.516 1183.26 435.516C1184.54 435.518 1185.58 436.557 1185.58 437.839L1185.58 449.365C1185.57 449.849 1185.18 450.24 1184.7 450.247L1176.49 450.247 1178.51 452.267 1181.26 452.267 1181.26 455.017 1182.91 456.663C1183.13 456.248 1183.26 455.783 1183.26 455.31L1183.26 452.247 1184.7 452.247C1186.29 452.242 1187.58 450.954 1187.58 449.365L1187.58 437.839C1187.57 435.455 1185.64 433.523 1183.26 433.516Z"/><path d="M1141.49 452.247 1142.93 452.247 1142.93 455.31C1142.93 456.899 1144.22 458.187 1145.81 458.191L1147.25 458.191C1148.84 458.187 1150.12 456.899 1150.13 455.31L1150.13 452.247 1170 452.247 1168 450.247 1141.49 450.247C1141 450.24 1140.61 449.849 1140.6 449.365L1140.6 437.839C1140.61 436.557 1141.64 435.518 1142.93 435.516L1153.28 435.516 1151.28 433.516 1145.95 433.516 1147.54 429.779 1146.01 428.254 1143.78 433.516 1142.93 433.516C1140.54 433.523 1138.61 435.455 1138.6 437.839L1138.6 449.365C1138.61 450.954 1139.9 452.242 1141.49 452.247ZM1144.93 452.267 1148.13 452.267 1148.13 455.31C1148.12 455.794 1147.73 456.185 1147.25 456.191L1145.81 456.191C1145.32 456.185 1144.93 455.794 1144.93 455.31Z"/><path d="M1163 403C1142.01 402.994 1124.98 420.007 1124.98 441 1124.97 461.993 1141.99 479.016 1162.98 479.022 1183.97 479.028 1200.99 462.015 1201 441.022 1201 441.018 1201 441.015 1201 441.011 1201.01 420.03 1184.01 403.012 1163.03 403 1163.02 403 1163.01 403 1163 403ZM1163 477.021C1143.13 477.032 1127.01 460.93 1127 441.057 1126.99 431.839 1130.52 422.97 1136.87 416.28L1187.73 467.143C1181.06 473.488 1172.21 477.025 1163 477.021ZM1189.14 465.729 1138.28 414.866C1152.71 401.204 1175.48 401.827 1189.14 416.256 1202.28 430.131 1202.28 451.854 1189.14 465.729Z"/></g></svg>