<svg width="96" height="96" xmlns="http://www.w3.org/2000/svg" xmlns:xlink="http://www.w3.org/1999/xlink" xml:space="preserve" overflow="hidden"><g transform="translate(-1115 -513)"><path d="M1148 554.5 1145.5 552 1144.4 554.7C1142.4 554.9 1140.9 556.6 1140.9 558.6L1140.9 569.2C1140.9 570.7 1142.1 571.8 1143.5 571.8L1144.8 571.8 1144.8 576.4C1144.8 577.9 1146 579 1147.4 579L1148.7 579C1150.1 579 1151.3 577.8 1151.3 576.4L1151.3 571.8 1165.3 571.8 1148 554.5 1148 554.5ZM1149.9 562.5 1146 562.5C1145.3 562.5 1144.7 561.9 1144.7 561.2L1144.7 559.9C1144.7 559.2 1145.3 558.6 1146 558.6L1149.9 558.6C1150.6 558.6 1151.2 559.2 1151.2 559.9L1151.2 561.2C1151.2 561.9 1150.7 562.5 1149.9 562.5Z"/><path d="M1155.5 545 1173.4 545C1173.8 545 1174.1 545.2 1174.2 545.6L1178.1 554.6 1165 554.6 1182.2 571.8 1182.6 571.8C1184.1 571.8 1185.2 570.6 1185.2 569.2L1185.2 558.5C1185.2 556.5 1183.7 554.8 1181.7 554.6L1177.4 544.3C1176.8 542.7 1175.2 541.6 1173.5 541.6L1152.6 541.6C1152.5 541.6 1152.3 541.6 1152.2 541.6L1155.5 545ZM1181.3 559.8 1181.3 561.1C1181.3 561.8 1180.7 562.4 1180 562.4L1176.1 562.4C1175.4 562.4 1174.8 561.8 1174.8 561.1L1174.8 559.8C1174.8 559.1 1175.4 558.5 1176.1 558.5L1180 558.5C1180.7 558.5 1181.3 559.1 1181.3 559.8Z"/><path d="M1163 523C1142 523 1125 540 1125 561 1125 582 1142 599 1163 599 1184 599 1201 582 1201 561 1201 561 1201 561 1201 561 1201 540 1184 523 1163 523 1163 523 1163 523 1163 523ZM1193 561C1193 567.6 1190.8 574 1186.8 579.2L1144.8 537.2C1158 527.1 1176.8 529.7 1186.8 542.8 1190.8 548 1193 554.4 1193 561ZM1133 561C1133 554.4 1135.2 548 1139.2 542.8L1181.2 584.8C1168.1 594.9 1149.2 592.4 1139.2 579.2 1135.2 574 1133 567.6 1133 561L1133 561Z"/></g></svg>