<?xml version="1.0" encoding="UTF-8"?>
<svg id="Calque_1" xmlns="http://www.w3.org/2000/svg" version="1.1" viewBox="0 0 595.28 841.89">
  <!-- Generator: Adobe Illustrator 29.5.1, SVG Export Plug-In . SVG Version: 2.1.0 Build 141)  -->
  <defs>
    <style>
      .st0 {
        fill: #fefdff;
        stroke: #f6f5f7;
        stroke-miterlimit: 10;
      }

      .st1 {
        fill: #fff;
        font-family: IowanOldStyle-Titling, 'Iowan Old Style';
        font-size: 72px;
        font-style: italic;
      }
    </style>
  </defs>
  <path class="st0" d="M63.36,398.63s4.87-4.18,4.41-9.75l.03-55.93s-.73-6.96-4.44-7.43v-2.09h14.85l27.15,62.19,26.92-62.19h12.76s-3.48,7.89-3.02,10.44v55.23s.46,6.5,3.02,9.51h-16.71s4.18-5.34,3.25-10.21l.23-56.39-29.24,66.6h-2.48l-29.07-65.66.19,57.26s.79,6.13,4.43,8.69l-12.29-.28Z"/>
  <path class="st0" d="M196.72,333.23l3.26-8.45,3.11,8.45v51.15s3.41,1.19,2.97,5.34l3.86,4.6h4.6s3.56,2.08,0,4.6h-28.91s-3.86-1.93,0-4.45l4-.3,4.45-3.86s-.59-4.6,2.82-5.49l-.15-51.6Z"/>
  <path class="st0" d="M201.61,324.19l3.56,6.67,28.91-3.34s5.34-1.56,7.71,3.34c0,0,1.33,2.67-3.71,3.41,0,0-1.04.44-4.74-.59,0,0,5.81,4.64,8.61.69,0,0,3.1-1.73,1.77-5.14,0,0-3.11-7.12-9.64-5.78l-32.47.74Z"/>
  <path class="st0" d="M198.35,324.19l-3.56,6.82-26.84-3.41s-5.34-2.93-8.75,2.02c0,0-2.82,1.54,0,3.76,0,0-.15,2.08,7.86.74,0,0-6.51,4.45-9.11.45,0,0-2.24-3.02-1.86-4.36,0,0,1.63-8.58,13.49-6.93l28.77.91Z"/>
  <path class="st0" d="M222.1,358.42"/>
  <g>
    <path class="st0" d="M161.97,339.15l-9.79,33.21s3.76,2.22,10.83,2.09c2.76-.05,6.03-.46,9.78-1.5l-10.82-33.81Z"/>
    <polyline class="st0" points="163.62 374.62 163.68 373.42 161.9 339.62 161.73 373.03 161.73 374.62"/>
    <path class="st0" d="M147.49,373.03s16.27,7.45,29.68,0c0,0,1.08,4.16-8.88,7.8-7.54,2.76-16.16-.02-20.29-6.91-.17-.29-.34-.59-.51-.89Z"/>
  </g>
  <g>
    <path class="st0" d="M238.02,338.7l-9.79,33.21s3.76,2.22,10.83,2.09c2.76-.05,6.03-.46,9.78-1.5l-10.82-33.81Z"/>
    <polyline class="st0" points="239.8 373.73 239.8 372.51 238.02 338.7 237.43 372.51 237.38 373.99"/>
    <path class="st0" d="M223.54,372.58s16.27,7.45,29.68,0c0,0,1.11,4.3-9.38,7.98-6.71,2.36-14.25.36-18.57-5.3-.61-.8-1.19-1.69-1.72-2.69Z"/>
  </g>
  <text class="st1" transform="translate(282.97 391.21)"><tspan x="0" y="0">AVOCAT</tspan></text>
  <polyline class="st0" points="162.34 357.12 162.49 375.03 163.02 374.45 163.02 370.1"/>
  <path class="st0" d="M186.02,368.01"/>
  <line class="st0" x1="162.89" y1="368.02" x2="163.02" y2="370.59"/>
  <path class="st0" d="M171.57,365.51"/>
  <polyline class="st0" points="238.13 352.92 238.44 373.2 239.38 373.52 238.44 361.55 238.94 372.86 237.92 372.68 237.92 368.03 237.92 365.23"/>
  <path class="st0" d="M252.72,362.24"/>
  <line class="st0" x1="238.48" y1="374.01" x2="237.85" y2="372.89"/>
</svg>